:SAMPLES-PER-SECOND 30
:FULLY-SPECIFIED
:DEGREES
49
root  65.3503 38.5745 6.1268 -36.0087 -79.3338 34.0544
RightUpLeg  14.5991 -16.1447 -21.2781
RightLeg  20.3252 -3.425 -1.72669
RightFoot  -14.3136 0.408734 20.1286
RightToes  0.00048216 0.542163 -0.142577
Spine  7.80862 0.883635 0.736647
Spine1  7.01948 2.22724 -4.52704
HEad  -11.4143 -11.8798 4.39797
LeftShoulder1  6.0885 -9.57742 -40.2617
LeftArm  -13.385 27.0805 -33.0284
LeftForeArm  33.9076 -10.1793 -4.08457
LeftHand  -0.25398 0.0180481 5.50724
RightShoulder  3.62253 6.26544 31.1286
RightArm  -3.07937 -15.0455 33.5483
RightForeArm  0.494189 29.5916 6.41178
RightHand  -2.21825 5.8641 -22.9446
LeftUpLeg  -17.9732 14.6623 -4.41126
LeftLeg  23.4679 3.38105 1.9411
LeftFoot  -2.80791 0.0388004 -0.321354
LeftToes  1.06245e-005 4.65855e-005 -8.18504e-006
50
root  64.5262 38.6232 6.78291 -40.1167 -78.997 37.6799
RightUpLeg  11.2546 -10.5094 -20.7915
RightLeg  28.3068 -8.69691 -5.36049
RightFoot  -8.98458 -0.468088 21.243
RightToes  0.00048216 0.542163 -0.142577
Spine  9.01584 0.978043 -0.342681
Spine1  6.73562 2.30466 -4.96046
HEad  -12.0862 -11.6147 4.84325
LeftShoulder1  6.35433 -9.88746 -41.1183
LeftArm  -12.21 24.032 -31.6222
LeftForeArm  33.813 -10.3983 -4.43546
LeftHand  -0.25398 0.0180481 5.50724
RightShoulder  3.64756 6.31679 31.1899
RightArm  -3.48861 -16.0677 34.784
RightForeArm  -3.38699 28.0264 6.23649
RightHand  -2.88239 7.94525 -25.1306
LeftUpLeg  -15.8225 15.0296 -5.51432
LeftLeg  23.7783 3.4301 1.99147
LeftFoot  -5.34048 0.0507692 -0.419028
LeftToes  1.06245e-005 4.65855e-005 -8.18504e-006
51
root  63.73 38.7861 7.3888 -43.4394 -79.3116 40.696
RightUpLeg  5.38181 -6.70755 -19.8619
RightLeg  38.98 -11.5568 -10.0642
RightFoot  -0.280678 -1.32796 14.2099
RightToes  0.00048216 0.542163 -0.142577
Spine  10.0838 0.988954 -0.940434
Spine1  6.47084 2.28021 -5.07564
HEad  -12.8457 -10.8257 4.64774
LeftShoulder1  6.67151 -10.3518 -41.776
LeftArm  -11.7172 20.3615 -30.7485
LeftForeArm  34.0315 -10.0655 -4.62967
LeftHand  -0.25398 0.0180481 5.50724
RightShoulder  3.74992 6.55063 31.3461
RightArm  -2.30069 -16.6793 36.6422
RightForeArm  -7.76231 25.7367 5.91414
RightHand  -3.28163 8.99238 -26.4799
LeftUpLeg  -13.2231 16.3028 -5.96812
LeftLeg  22.6907 2.96712 1.70402
LeftFoot  -6.68371 0.0604008 -0.487718
LeftToes  1.06245e-005 4.65855e-005 -8.18504e-006
52
root  62.9615 38.9645 7.90113 -45.8869 -79.6887 42.8579
RightUpLeg  -1.04353 -4.76351 -18.8165
RightLeg  48.075 -9.62513 -11.5031
RightFoot  7.03912 -0.8035 5.00603
RightToes  0.00048216 0.542163 -0.142577
Spine  11.1195 0.826096 -1.88976
Spine1  6.44787 1.86008 -4.61344
HEad  -13.6161 -10.4694 4.5775
LeftShoulder1  7.03821 -10.9386 -42.3211
LeftArm  -11.465 16.4027 -30.0445
LeftForeArm  34.2833 -9.68007 -4.77628
LeftHand  -0.25398 0.0180481 5.50724
RightShoulder  3.89738 6.88777 31.5577
RightArm  0.449019 -17.311 38.6747
RightForeArm  -10.4128 24.0008 5.65129
RightHand  -3.18816 8.67157 -26.2961
LeftUpLeg  -10.5447 17.7441 -6.01886
LeftLeg  21.1907 2.2325 1.3073
LeftFoot  -7.55349 0.0656189 -0.619118
LeftToes  1.06245e-005 4.65855e-005 -8.18504e-006
53
root  62.1701 39.1715 8.34938 -45.827 -80.0368 42.3502
RightUpLeg  -6.44481 -4.48446 -17.4101
RightLeg  53.8074 -5.62473 -8.59284
RightFoot  8.81959 -0.3578 2.31857
RightToes  0.00048216 0.542163 -0.142577
Spine  12.1927 0.456172 -2.86675
Spine1  6.56276 1.04792 -3.6165
HEad  -14.0056 -10.1201 4.54881
LeftShoulder1  7.42901 -11.5462 -42.9081
LeftArm  -10.8412 12.4031 -29.1153
LeftForeArm  34.5912 -9.69043 -5.02566
LeftHand  -0.25398 0.0180481 5.50724
RightShoulder  4.03743 7.18353 31.8329
RightArm  3.89151 -18.3158 40.6536
RightForeArm  -9.95964 23.0098 5.47859
RightHand  -2.84163 7.69254 -25.2384
LeftUpLeg  -7.48243 18.2645 -5.3412
LeftLeg  19.352 2.04293 0.719056
LeftFoot  -8.55947 0.0793999 -1.16445
LeftToes  1.06245e-005 4.65855e-005 -8.18504e-006
54
root  61.3177 39.4022 8.76361 -43.3797 -80.5368 39.4786
RightUpLeg  -10.8947 -5.65029 -15.4452
RightLeg  56.5054 -3.15259 -5.60538
RightFoot  6.73538 -0.809602 5.42952
RightToes  0.00048216 0.542163 -0.142577
Spine  13.0127 -0.0405163 -3.50344
Spine1  6.69869 0.0779377 -2.41707
HEad  -14.0525 -8.50095 3.64215
LeftShoulder1  7.70862 -11.9741 -43.3192
LeftArm  -10.0523 8.43037 -28.2444
LeftForeArm  35.1118 -10.0234 -5.29852
LeftHand  -0.25398 0.0180481 5.50724
RightShoulder  4.14084 7.36022 32.172
RightArm  7.126 -19.7038 42.567
RightForeArm  -6.70844 22.2351 5.3462
RightHand  -2.56395 6.86573 -24.3428
LeftUpLeg  -4.08879 15.8694 -3.78365
LeftLeg  17.1183 4.46925 -0.397888
LeftFoot  -9.35148 0.0890664 -1.88438
LeftToes  1.06245e-005 4.65855e-005 -8.18504e-006
55
root  60.4056 39.5908 9.15102 -40.2259 -81.1258 36.1652
RightUpLeg  -14.8631 -7.96659 -12.9074
RightLeg  56.3751 -3.5059 -6.07965
RightFoot  4.07441 -1.06513 8.00969
RightToes  0.00048216 0.542163 -0.142577
Spine  13.3461 -0.570186 -4.11779
Spine1  6.83952 -0.939877 -1.14005
HEad  -14.3305 -7.45668 3.07368
LeftShoulder1  7.74583 -12.0826 -43.2185
LeftArm  -9.64861 4.66349 -27.9587
LeftForeArm  35.5053 -10.696 -5.38787
LeftHand  -0.25398 0.0180481 5.50724
RightShoulder  4.21886 7.45336 32.5607
RightArm  9.65952 -21.4208 44.272
RightForeArm  -2.25434 21.6024 5.22519
RightHand  -2.35713 6.23392 -23.6104
LeftUpLeg  -0.997823 11.822 -2.34546
LeftLeg  14.7889 8.44276 -1.76053
LeftFoot  -9.81401 0.0901853 -2.33429
LeftToes  1.06245e-005 4.65855e-005 -8.18504e-006
56
root  59.4507 39.7451 9.53705 -36.9566 -81.7942 32.867
RightUpLeg  -18.1192 -10.8431 -9.74652
RightLeg  53.2333 -5.87824 -8.72467
RightFoot  1.95661 -0.752816 6.53257
RightToes  0.00048216 0.542163 -0.142577
Spine  13.4339 -1.1106 -4.70768
Spine1  6.98206 -1.9823 0.445559
HEad  -15.1926 -7.08358 3.17021
LeftShoulder1  7.60911 -11.9631 -42.7564
LeftArm  -9.50114 1.42319 -28.1782
LeftForeArm  35.037 -12.1632 -5.19199
LeftHand  -0.25398 0.0180481 5.50724
RightShoulder  4.27772 7.50381 32.9187
RightArm  11.4852 -23.4252 45.4747
RightForeArm  1.21841 21.4098 5.11242
RightHand  -2.14617 5.66669 -22.6345
LeftUpLeg  2.00066 8.27327 -1.42414
LeftLeg  12.0994 11.9649 -2.98705
LeftFoot  -10.2158 0.0873433 -2.6609
LeftToes  1.06245e-005 4.65855e-005 -8.18504e-006
57
root  58.4601 39.8225 9.91947 -35.0372 -82.643 30.8498
RightUpLeg  -20.0924 -13.6451 -6.39177
RightLeg  46.7155 -8.52418 -9.89086
RightFoot  0.134411 -0.487683 4.90086
RightToes  0.00048216 0.542163 -0.142577
Spine  13.5683 -1.50879 -5.33783
Spine1  7.16346 -2.91879 2.20947
HEad  -16.1427 -6.71958 3.48028
LeftShoulder1  7.48908 -11.8458 -42.3804
LeftArm  -8.89049 -1.12409 -28.3527
LeftForeArm  33.3348 -14.6996 -4.71069
LeftHand  -0.25398 0.0180481 5.50724
RightShoulder  4.29733 7.49673 33.1213
RightArm  13.0103 -25.4913 46.0528
RightForeArm  1.63777 21.6564 5.06135
RightHand  -2.05687 5.48264 -22.0801
LeftUpLeg  5.01063 6.27526 -0.934371
LeftLeg  9.56532 14.2322 -3.8373
LeftFoot  -10.996 0.0752736 -3.19546
LeftToes  1.06245e-005 4.65855e-005 -8.18504e-006
58
root  57.3919 39.7696 10.286 -36.4632 -83.62 32.2385
RightUpLeg  -20.823 -16.6706 -3.17906
RightLeg  37.2246 -10.0351 -8.36301
RightFoot  -1.18834 -0.547298 6.06406
RightToes  0.00048216 0.542163 -0.142577
Spine  13.5166 -1.73182 -6.21348
Spine1  7.42159 -3.68043 3.84607
HEad  -16.7794 -5.70377 3.44771
LeftShoulder1  7.4394 -11.824 -42.1435
LeftArm  -7.79804 -3.04393 -28.2488
LeftForeArm  31.153 -17.9247 -4.02835
LeftHand  -0.25398 0.0180481 5.50724
RightShoulder  4.28108 7.44426 33.1596
RightArm  14.414 -27.3148 46.0979
RightForeArm  -0.716478 22.1583 5.10491
RightHand  -2.15213 5.69405 -22.6377
LeftUpLeg  7.69363 5.94757 -0.823452
LeftLeg  8.01259 15.241 -4.18221
LeftFoot  -12.1674 0.0461569 -3.74972
LeftToes  1.06245e-005 4.65855e-005 -8.18504e-006
59
root  56.2311 39.6175 10.6294 -41.5451 -84.3812 37.5535
RightUpLeg  -21.2542 -21.0227 0.292986
RightLeg  26.4347 -9.24956 -5.36974
RightFoot  -1.72495 -0.579578 6.73444
RightToes  0.00048216 0.542163 -0.142577
Spine  13.0582 -1.95161 -7.3872
Spine1  7.71766 -4.40818 5.38197
HEad  -17.317 -4.16291 3.21208
LeftShoulder1  7.37361 -11.8025 -41.8064
LeftArm  -7.24907 -4.49012 -28.0278
LeftForeArm  29.9912 -21.1844 -3.49233
LeftHand  -0.25398 0.0180481 5.50724
RightShoulder  4.27288 7.41374 33.1936
RightArm  15.1066 -28.8374 45.6677
RightForeArm  -2.94946 22.9795 5.16857
RightHand  -2.23943 5.71047 -23.4894
LeftUpLeg  9.95435 6.14638 -1.08039
LeftLeg  7.17658 15.7188 -4.35357
LeftFoot  -13.454 0.00248161 -4.23381
LeftToes  1.06245e-005 4.65855e-005 -8.18504e-006
60
root  55.015 39.41 10.9463 -48.4094 -84.6936 44.767
RightUpLeg  -21.6968 -24.5488 3.18703
RightLeg  16.8301 -7.50987 -1.96634
RightFoot  -1.8448 -0.488691 5.72429
RightToes  0.00048216 0.542163 -0.142577
Spine  12.5679 -2.24313 -8.63571
Spine1  7.90579 -5.18287 6.88283
HEad  -17.9579 -2.68413 3.15337
LeftShoulder1  7.27649 -11.7263 -41.4359
LeftArm  -7.9428 -5.64023 -27.7664
LeftForeArm  30.4824 -24.0218 -3.51886
LeftHand  -0.25398 0.0180481 5.50724
RightShoulder  4.2982 7.43684 33.3417
RightArm  13.6674 -30.2302 44.7816
RightForeArm  -2.64482 24.3758 5.33874
RightHand  -2.19716 5.48259 -23.5184
LeftUpLeg  11.9602 6.16862 -1.55505
LeftLeg  6.77401 15.8697 -4.61059
LeftFoot  -14.9849 -0.0750037 -5.13377
LeftToes  1.06245e-005 4.65855e-005 -8.18504e-006
61
root  53.7506 39.1404 11.2463 -54.8494 -84.7456 51.2927
RightUpLeg  -20.8099 -19.9862 2.12893
RightLeg  10.6211 -11.9235 1.56628
RightFoot  -2.16502 -0.506239 6.13529
RightToes  0.00048216 0.542163 -0.142577
Spine  12.4944 -2.54313 -9.53015
Spine1  7.92264 -5.89663 8.14863
HEad  -18.5631 -1.55378 3.18607
LeftShoulder1  7.21926 -11.6653 -41.2624
LeftArm  -9.26414 -6.57155 -27.5104
LeftForeArm  31.5722 -26.2637 -3.95497
LeftHand  -0.25398 0.0180481 5.50724
RightShoulder  4.32908 7.47687 33.4793
RightArm  9.25446 -31.6039 43.6456
RightForeArm  -0.318854 26.8046 5.78562
RightHand  -2.221 5.8316 -23.0673
LeftUpLeg  13.781 6.22478 -1.98098
LeftLeg  7.45256 15.6927 -4.65598
LeftFoot  -16.83 -0.200252 -6.28644
LeftToes  1.06245e-005 4.65855e-005 -8.18504e-006
